# xmcd CD database file
#
# Track frame offsets:
#	150
#	5183
#	19563
#	36555
#	50933
#	67925
#	73560
#	80328
#
# Disc length: 1138 seconds
#
# Revision: 12
# Processed by: cddbd v1.5.2PL0 Copyright (c) Steve Scherf et al.
# Submitted via: CDex 1.70beta3
#
DISCID=6a047008
DTITLE=Various Artist - TVアニメーション THE ビッグオー OPENING THEME RESPECT 
DYEAR=2003
DGENRE=Anime
TTITLE0=佐橋俊彦/RESPECT
TTITLE1=永井ルイ/BIG-O!
TTITLE2=ROBBY DANZIE with 高尾直樹/and FOREVER...
TTITLE3=永井ルイ/BIG-O! (Karaoke Ver.)
TTITLE4=ROBBY DANZIE with 高尾直樹/and FOREVER... (Instrumental Ver.)
TTITLE5=永井ルイ/BIG-O! (Showtime Ver.)
TTITLE6=ROBBY DANZIE with 高尾直樹/and FOREVER... (TV-EDIT)
TTITLE7=永井ルイ/BIG-O! (TV-EDIT)
EXTD=YEAR: 2003
EXTT0=
EXTT1=
EXTT2=
EXTT3=
EXTT4=
EXTT5=
EXTT6=
EXTT7=
PLAYORDER=
